<?xml version="1.0" standalone="no"?>
<!DOCTYPE svg PUBLIC "-//W3C//DTD SVG 20010904//EN"
 "http://www.w3.org/TR/2001/REC-SVG-20010904/DTD/svg10.dtd">
<svg version="1.0" xmlns="http://www.w3.org/2000/svg"
 width="512.000000pt" height="512.000000pt" viewBox="0 0 512.000000 512.000000"
 preserveAspectRatio="xMidYMid meet">

<g transform="translate(0.000000,512.000000) scale(0.100000,-0.100000)"
fill="#000000" stroke="none">
<path d="M4250 5109 c-27 -8 -179 -154 -660 -634 l-625 -624 -35 19 c-49 26
-173 67 -244 79 -289 52 -613 -87 -784 -336 l-37 -53 -120 -4 c-169 -5 -290
-41 -417 -125 -97 -63 -179 -146 -238 -240 -60 -94 -67 -101 -161 -161 -208
-131 -342 -353 -366 -602 l-6 -67 -211 -3 c-202 -3 -213 -4 -249 -27 -49 -30
-85 -85 -93 -141 -15 -112 101 -493 231 -755 206 -417 493 -749 881 -1019 l82
-56 3 -113 c5 -129 21 -168 92 -215 l41 -27 1226 0 1226 0 41 27 c71 47 87 86
92 216 l3 113 73 49 c555 374 953 959 1100 1615 39 173 23 243 -68 303 -40 27
-42 27 -252 30 l-211 3 -12 93 c-32 258 -173 469 -399 602 -44 25 -70 49 -83
73 l-19 36 524 525 c475 476 524 529 535 570 42 159 -91 292 -250 250 -41 -11
-94 -61 -570 -535 l-525 -523 -64 31 c-121 57 -236 77 -450 77 -3 0 276 282
621 628 571 571 627 631 638 672 34 128 -45 246 -171 255 -30 3 -70 0 -89 -6z
m-1526 -1587 c111 -52 168 -118 221 -253 55 -140 138 -173 315 -124 129 35
273 -2 375 -96 33 -31 59 -70 92 -139 25 -52 53 -103 62 -114 9 -10 61 -40
116 -66 73 -35 113 -61 144 -95 52 -56 98 -152 107 -222 l7 -53 -1603 0 -1603
0 7 53 c9 70 55 166 107 222 31 34 71 60 144 95 55 26 107 56 116 66 9 11 37
62 62 115 35 73 58 107 94 139 107 95 244 130 373 95 96 -27 146 -29 194 -11
57 22 91 60 121 135 50 129 106 196 205 246 71 36 114 45 202 41 60 -3 93 -11
142 -34z m1931 -1594 c-4 -18 -30 -90 -57 -160 -166 -421 -471 -793 -853
-1039 -66 -43 -135 -90 -154 -106 -46 -37 -71 -95 -71 -165 l0 -58 -960 0
-960 0 0 58 c0 70 -25 128 -71 165 -19 16 -92 66 -163 112 -384 253 -678 612
-845 1036 -29 72 -54 144 -58 160 l-5 29 2102 0 2102 0 -7 -32z"/>
</g>
</svg>
